# xmcd
#
# Track frame offsets: 
#        150
#        17130
#        33780
#        52935
#        71882
#        88487
#        109302
#        130517
#        155862
#        177945
#        201785
#        227322
#        242327
#        270160
#        288377
#
# Disc length: 4095 seconds
#
# Revision: 0
# Processed by: cddbd v1.5.2PL0 Copyright (c) Steve Scherf et al.
# Submitted via: ExactAudioCopy v0.99pb4
#
DISCID=c60ffd0f
DTITLE=Various Artist - Malaco Fall Sampler 99
DYEAR=1999
DGENRE=Soul
TTITLE0=Vince Vance - Al I Want For Christmas
TTITLE1=Johnnie Taylor - Big Head Hundred
TTITLE2=Little Milton -Recitation ..Mother Earth 
TTITLE3=Mel Waiters - Hole In The Wall
TTITLE4=Tyrone Davis - Turn Back The Clock
TTITLE5=The Last Soul Company - Your Husband Is Cheating On Us
TTITLE6=Artie White - When You Leave Don´t Take Nothin´
TTITLE7=Mississipi Mass Choir - They Got The Word
TTITLE8=Men Of Standard - Yet Will I Trust In Him
TTITLE9=Georgia Mass Choir - Blessing Coming Through
TTITLE10=Dorothy Norwood - All I Want For Christmas
TTITLE11=Jackson Southernaires - Warrior
TTITLE12=Miami Mass Choir - It Is For Me
TTITLE13=Jamie Slocum - Wounded
TTITLE14=The Kry - Let Me Say
EXTD=
EXTT0=
EXTT1=
EXTT2=
EXTT3=
EXTT4=
EXTT5=
EXTT6=
EXTT7=
EXTT8=
EXTT9=
EXTT10=
EXTT11=
EXTT12=
EXTT13=
EXTT14=
PLAYORDER=
